<svg xmlns="http://www.w3.org/2000/svg" version="1.1" xmlns:xlink="http://www.w3.org/1999/xlink" xmlns:svgjs="http://svgjs.dev/svgjs" width="1440" height="920" preserveAspectRatio="none" viewBox="0 0 1440 920"><g mask="url(&quot;#SvgjsMask1015&quot;)" fill="none"><rect width="1440" height="920" x="0" y="0" fill="rgba(0, 0, 0, 1)"></rect><path d="M45 920L965 0L1224.5 0L304.5 920z" fill="url(&quot;#SvgjsLinearGradient1016&quot;)"></path><path d="M514.2 920L1434.2 0L1798.7 0L878.7 920z" fill="url(&quot;#SvgjsLinearGradient1016&quot;)"></path><path d="M1378 920L458 0L345.5 0L1265.5 920z" fill="url(&quot;#SvgjsLinearGradient1017&quot;)"></path><path d="M918.8 920L-1.2000000000000455 0L-170.70000000000005 0L749.3 920z" fill="url(&quot;#SvgjsLinearGradient1017&quot;)"></path><path d="M960.2787738689864 920L1440 440.2787738689864L1440 920z" fill="url(&quot;#SvgjsLinearGradient1016&quot;)"></path><path d="M0 920L479.7212261310136 920L 0 440.2787738689864z" fill="url(&quot;#SvgjsLinearGradient1017&quot;)"></path></g><defs><mask id="SvgjsMask1015"><rect width="1440" height="920" fill="#ffffff"></rect></mask><linearGradient x1="0%" y1="100%" x2="100%" y2="0%" id="SvgjsLinearGradient1016"><stop stop-color="rgba(31, 35, 45, 1)" offset="0"></stop><stop stop-opacity="0" stop-color="rgba(31, 35, 45, 1)" offset="0.66"></stop></linearGradient><linearGradient x1="100%" y1="100%" x2="0%" y2="0%" id="SvgjsLinearGradient1017"><stop stop-color="rgba(31, 35, 45, 1)" offset="0"></stop><stop stop-opacity="0" stop-color="rgba(31, 35, 45, 1)" offset="0.66"></stop></linearGradient></defs></svg>