<svg xmlns="http://www.w3.org/2000/svg" version="1.1" xmlns:xlink="http://www.w3.org/1999/xlink" xmlns:svgjs="http://svgjs.dev/svgjs" width="1920" height="400" preserveAspectRatio="none" viewBox="0 0 1920 400"><g mask="url(&quot;#SvgjsMask1042&quot;)" fill="none"><rect width="1920" height="400" x="0" y="0" fill="rgba(0, 0, 0, 1)"></rect><path d="M25 400L425 0L483.5 0L83.5 400z" fill="url(&quot;#SvgjsLinearGradient1043&quot;)"></path><path d="M325.8 400L725.8 0L836.8 0L436.8 400z" fill="url(&quot;#SvgjsLinearGradient1043&quot;)"></path><path d="M655.6 400L1055.6 0L1459.1 0L1059.1 400z" fill="url(&quot;#SvgjsLinearGradient1043&quot;)"></path><path d="M998.4000000000001 400L1398.4 0L1524.4 0L1124.4 400z" fill="url(&quot;#SvgjsLinearGradient1043&quot;)"></path><path d="M1919 400L1519 0L1471 0L1871 400z" fill="url(&quot;#SvgjsLinearGradient1044&quot;)"></path><path d="M1569.2 400L1169.2 0L1113.7 0L1513.7 400z" fill="url(&quot;#SvgjsLinearGradient1044&quot;)"></path><path d="M1275.4 400L875.4000000000001 0L521.4000000000001 0L921.4000000000001 400z" fill="url(&quot;#SvgjsLinearGradient1044&quot;)"></path><path d="M917.5999999999999 400L517.5999999999999 0L148.5999999999999 0L548.5999999999999 400z" fill="url(&quot;#SvgjsLinearGradient1044&quot;)"></path><path d="M1553.9147154718867 400L1920 33.91471547188655L1920 400z" fill="url(&quot;#SvgjsLinearGradient1043&quot;)"></path><path d="M0 400L366.08528452811345 400L 0 33.91471547188655z" fill="url(&quot;#SvgjsLinearGradient1044&quot;)"></path></g><defs><mask id="SvgjsMask1042"><rect width="1920" height="400" fill="#ffffff"></rect></mask><linearGradient x1="0%" y1="100%" x2="100%" y2="0%" id="SvgjsLinearGradient1043"><stop stop-color="rgba(31, 35, 45, 1)" offset="0"></stop><stop stop-opacity="0" stop-color="rgba(31, 35, 45, 1)" offset="0.66"></stop></linearGradient><linearGradient x1="100%" y1="100%" x2="0%" y2="0%" id="SvgjsLinearGradient1044"><stop stop-color="rgba(31, 35, 45, 1)" offset="0"></stop><stop stop-opacity="0" stop-color="rgba(31, 35, 45, 1)" offset="0.66"></stop></linearGradient></defs></svg>